<svg xmlns="http://www.w3.org/2000/svg" width="1000" height="1000" fill="currentColor" class="solaris-icon si-contact" viewBox="0 0 1000 1000">
  <path d="M500 75C265.279 75 75 265.279 75 500s190.279 425 425 425 425-190.279 425-425S734.721 75 500 75m0 800c-207.107 0-375-167.893-375-375s167.893-375 375-375 375 167.893 375 375-167.893 375-375 375m59.6-662.95a156.076 156.076 0 0 0-216.3 144.025c0 .7.017 1.406.026 2.108a156.061 156.061 0 0 0 312.104-.783c0-.442.017-.882.017-1.325A156.115 156.115 0 0 0 559.6 212.05m77.958 274.959c-31.526 29.724-72.631 53.015-118.2 57.5q-9.861.97-19.985.981c-5.923 0-11.781-.271-17.574-.771-46.526-4.023-88.529-27.467-120.609-57.714a184.45 184.45 0 0 0-103.025 165.542v75.481a349.987 349.987 0 0 0 482.414 1.192v-76.673a184.45 184.45 0 0 0-103.024-165.538Z" style="fill-rule:evenodd"/>
</svg>